<?xml version="1.0" encoding="UTF-8" standalone="no"?>
<!-- Created with Inkscape (http://www.inkscape.org/) -->

<svg
   xmlns:dc="http://purl.org/dc/elements/1.1/"
   xmlns:cc="http://creativecommons.org/ns#"
   xmlns:rdf="http://www.w3.org/1999/02/22-rdf-syntax-ns#"
   xmlns:svg="http://www.w3.org/2000/svg"
   xmlns="http://www.w3.org/2000/svg"
   xmlns:sodipodi="http://sodipodi.sourceforge.net/DTD/sodipodi-0.dtd"
   xmlns:inkscape="http://www.inkscape.org/namespaces/inkscape"
   id="svg170623"
   version="1.1"
   inkscape:version="0.91 r13725"
   xml:space="preserve"
   width="1052.3625"
   height="744.09375"
   viewBox="0 0 1052.3625 744.09375"
   sodipodi:docname="Sponsorlogo_TESpms_4-farger.svg"><metadata
     id="metadata170629"><rdf:RDF><cc:Work
         rdf:about=""><dc:format>image/svg+xml</dc:format><dc:type
           rdf:resource="http://purl.org/dc/dcmitype/StillImage" /><dc:title></dc:title></cc:Work></rdf:RDF></metadata><defs
     id="defs170627"><clipPath
       clipPathUnits="userSpaceOnUse"
       id="clipPath170641"><path
         d="m 0,595.275 841.89,0 L 841.89,0 0,0 0,595.275 Z"
         id="path170643"
         inkscape:connector-curvature="0" /></clipPath></defs><sodipodi:namedview
     pagecolor="#ffffff"
     bordercolor="#666666"
     borderopacity="1"
     objecttolerance="10"
     gridtolerance="10"
     guidetolerance="10"
     inkscape:pageopacity="0"
     inkscape:pageshadow="2"
     inkscape:window-width="1458"
     inkscape:window-height="896"
     id="namedview170625"
     showgrid="false"
     inkscape:zoom="0.31716434"
     inkscape:cx="526.18127"
     inkscape:cy="372.04688"
     inkscape:window-x="0"
     inkscape:window-y="27"
     inkscape:window-maximized="0"
     inkscape:current-layer="g170631" /><g
     id="g170631"
     inkscape:groupmode="layer"
     inkscape:label="Sponsorlogo_TESpms_4-farger"
     transform="matrix(1.25,0,0,-1.25,0,744.09375)"><g
       id="g170633"
       transform="translate(217.8799,177.6836)"><path
         d="m 0,0 0,39.366 -14.862,0 0,6.949 38.524,0 0,-6.949 -14.929,0 L 8.733,0 0,0 Z"
         style="fill:#5f523c;fill-opacity:1;fill-rule:nonzero;stroke:none"
         id="path170635"
         inkscape:connector-curvature="0" /></g><g
       id="g170637"><g
         id="g170639"
         clip-path="url(#clipPath170641)"><g
           id="g170645"
           transform="translate(239.5244,199.5176)"><path
             d="m 0,0 c 0,1.939 0.231,3.803 0.695,5.591 0.465,1.786 1.444,3.318 2.943,4.597 0.796,0.707 1.666,1.269 2.615,1.688 0.948,0.419 1.895,0.728 2.845,0.927 0.948,0.197 1.862,0.317 2.746,0.363 0.881,0.043 1.655,0.067 2.316,0.067 l 5.227,0 0,-5.956 -3.244,0 C 15.128,7.277 14.005,7.145 12.771,6.88 11.536,6.615 10.455,5.933 9.529,4.829 8.777,3.945 8.292,2.908 8.071,1.717 7.854,0.527 7.74,-0.729 7.74,-2.054 l 0,-19.78 -7.74,0 L 0,0 Z"
             style="fill:#5f523c;fill-opacity:1;fill-rule:nonzero;stroke:none"
             id="path170647"
             inkscape:connector-curvature="0" /></g><g
           id="g170649"
           transform="translate(289.9438,195.1514)"><path
             d="m 0,0 c 0,-1.548 -0.102,-3.113 -0.298,-4.699 -0.198,-1.592 -0.873,-3.024 -2.016,-4.303 -1.151,-1.28 -2.463,-2.085 -3.94,-2.415 -1.477,-0.33 -2.944,-0.496 -4.399,-0.496 -1.411,0 -2.878,0.166 -4.401,0.496 -0.497,0.109 -0.967,0.286 -1.425,0.495 L -0.572,6.147 C -0.417,5.623 -0.284,5.095 -0.199,4.563 -0.068,3.726 0,2.907 0,2.112 L 0,0 Z m -21.273,2.051 c 0.022,0.794 0.099,1.618 0.232,2.48 0.133,0.86 0.351,1.708 0.66,2.545 0.307,0.841 0.729,1.566 1.258,2.187 0.53,0.618 1.158,1.113 1.886,1.489 0.728,0.372 1.466,0.659 2.216,0.857 0.75,0.2 1.512,0.321 2.283,0.365 0.771,0.043 1.465,0.064 2.085,0.064 0.706,0 1.433,-0.021 2.185,-0.064 0.749,-0.044 1.487,-0.165 2.214,-0.365 0.43,-0.118 0.851,-0.274 1.264,-0.454 L -20.764,-5.857 c -0.111,0.395 -0.194,0.8 -0.246,1.22 -0.197,1.633 -0.295,3.178 -0.295,4.637 0,0.567 0.009,1.254 0.032,2.051 M 7.875,3.438 C 7.784,4.672 7.586,5.931 7.278,7.209 6.968,8.487 6.517,9.758 5.919,11.015 5.325,12.271 4.52,13.364 3.506,14.291 c -0.972,0.881 -2.05,1.575 -3.243,2.084 -1.189,0.506 -2.425,0.881 -3.704,1.124 -1.281,0.243 -2.537,0.387 -3.77,0.43 -1.239,0.043 -2.384,0.067 -3.442,0.067 -1.059,0 -2.206,-0.024 -3.441,-0.067 -1.237,-0.043 -2.492,-0.187 -3.77,-0.43 -1.282,-0.243 -2.517,-0.618 -3.707,-1.124 -1.191,-0.509 -2.273,-1.203 -3.242,-2.084 -1.017,-0.927 -1.82,-2.02 -2.417,-3.276 -0.592,-1.257 -1.046,-2.538 -1.354,-3.838 -0.311,-1.301 -0.507,-2.591 -0.597,-3.872 -0.088,-1.281 -0.131,-2.406 -0.131,-3.376 0,-0.88 0.043,-1.926 0.131,-3.141 0.09,-1.214 0.275,-2.471 0.561,-3.77 0.289,-1.303 0.729,-2.571 1.326,-3.805 0.596,-1.237 1.422,-2.34 2.481,-3.31 0.969,-0.884 2.051,-1.576 3.242,-2.084 1.19,-0.507 2.425,-0.881 3.707,-1.124 1.278,-0.241 2.533,-0.397 3.77,-0.462 1.235,-0.066 2.382,-0.102 3.441,-0.102 1.014,0 2.136,0.036 3.375,0.102 1.235,0.065 2.501,0.221 3.804,0.462 1.3,0.243 2.557,0.617 3.771,1.124 1.211,0.508 2.282,1.2 3.209,2.084 1.279,1.237 2.349,2.989 3.208,5.261 0.862,2.273 1.292,5.283 1.292,9.031 0,0.926 -0.044,2.007 -0.131,3.243"
             style="fill:#5f523c;fill-opacity:1;fill-rule:nonzero;stroke:none"
             id="path170651"
             inkscape:connector-curvature="0" /></g><g
           id="g170653"
           transform="translate(302.3159,207.3896)"><path
             d="m 0,0 c 0,0.529 0.055,1.149 0.167,1.854 0.108,0.706 0.429,1.342 0.958,1.918 0.75,0.837 1.643,1.313 2.68,1.421 1.036,0.112 1.928,0.168 2.679,0.168 l 12.373,0 c 1.853,0 3.594,-0.155 5.227,-0.465 1.633,-0.308 3.154,-1.102 4.565,-2.38 0.928,-0.838 1.731,-1.963 2.414,-3.375 0.685,-1.413 1.029,-3.332 1.029,-5.756 l 0,-23.091 -7.742,0 0,20.772 c 0,1.147 -0.09,2.262 -0.266,3.345 -0.176,1.078 -0.573,2.037 -1.192,2.876 -0.572,0.75 -1.289,1.291 -2.147,1.62 -0.86,0.332 -1.998,0.498 -3.409,0.498 l -7.874,0 C 9.24,-0.595 9.019,-0.605 8.8,-0.629 8.579,-0.651 8.36,-0.771 8.138,-0.992 7.917,-1.213 7.795,-1.457 7.774,-1.72 7.75,-1.986 7.743,-2.227 7.743,-2.448 l 0,-27.258 -7.743,0 L 0,0 Z"
             style="fill:#5f523c;fill-opacity:1;fill-rule:nonzero;stroke:none"
             id="path170655"
             inkscape:connector-curvature="0" /></g><g
           id="g170657"
           transform="translate(355.5859,206.7949)"><path
             d="m 0,0 c -1.016,0 -2.14,-0.177 -3.374,-0.53 -1.235,-0.353 -2.272,-1.216 -3.11,-2.582 -0.396,-0.615 -0.751,-1.541 -1.059,-2.779 -0.31,-1.235 -0.465,-3.043 -0.465,-5.424 0,-2.736 0.121,-4.653 0.366,-5.759 0.244,-1.101 0.429,-1.806 0.562,-2.116 0.396,-0.884 0.883,-1.588 1.456,-2.117 0.572,-0.527 1.18,-0.923 1.819,-1.194 0.638,-0.26 1.29,-0.437 1.952,-0.528 0.663,-0.086 1.279,-0.131 1.853,-0.131 l 6.221,0 c 0.173,0 0.494,0.021 0.959,0.066 0.462,0.044 0.825,0.198 1.091,0.461 0.309,0.268 0.485,0.676 0.53,1.227 0.042,0.551 0.063,0.961 0.063,1.226 L 8.864,0 0,0 Z m 16.343,-25.344 c -0.178,-0.836 -0.443,-1.5 -0.792,-1.983 -0.618,-0.838 -1.381,-1.347 -2.285,-1.522 -0.905,-0.178 -1.752,-0.262 -2.546,-0.262 l -13.831,0 c -0.883,0 -1.841,0.073 -2.878,0.229 -1.037,0.153 -2.062,0.472 -3.074,0.958 -1.017,0.484 -1.977,1.181 -2.881,2.085 -0.904,0.902 -1.686,2.127 -2.348,3.673 -0.442,1.014 -0.839,2.393 -1.192,4.137 -0.352,1.743 -0.529,4.067 -0.529,6.977 0,1.857 0.155,3.849 0.464,5.99 0.308,2.14 1.057,4.07 2.248,5.789 0.839,1.235 1.799,2.205 2.879,2.912 1.08,0.707 2.16,1.222 3.242,1.556 1.081,0.33 2.118,0.538 3.111,0.625 0.992,0.09 1.84,0.136 2.548,0.136 l 10.385,0 0,9.485 0,1.763 7.744,0 0.013,-1.763 -0.013,-38.401 c 0,-0.752 -0.089,-1.544 -0.265,-2.384"
             style="fill:#5f523c;fill-opacity:1;fill-rule:nonzero;stroke:none"
             id="path170659"
             inkscape:connector-curvature="0" /></g><g
           id="g170661"
           transform="translate(401.4458,198.5889)"><path
             d="M 0,0 C 0.748,0 1.222,0.219 1.422,0.652 1.62,1.087 1.72,1.541 1.72,2.021 1.72,3.104 1.489,4.038 1.025,4.82 0.561,5.602 0.042,6.209 -0.53,6.643 c -0.972,0.736 -2.04,1.18 -3.209,1.336 -1.171,0.153 -2.306,0.227 -3.408,0.227 -0.53,0 -1.1,-0.011 -1.721,-0.034 C -9.486,8.149 -10.124,8.075 -10.784,7.945 -11.449,7.815 -12.1,7.586 -12.737,7.261 -13.378,6.937 -13.963,6.491 -14.489,5.93 -15.286,5.059 -15.739,4.135 -15.846,3.157 -15.958,2.184 -16.036,1.131 -16.079,0 L 0,0 Z m -10.852,-20.905 c -0.883,0 -1.81,0.027 -2.78,0.095 -0.97,0.066 -1.919,0.254 -2.846,0.559 -0.926,0.31 -1.83,0.761 -2.711,1.351 -0.885,0.594 -1.676,1.398 -2.384,2.407 -1.147,1.67 -1.852,3.627 -2.114,5.869 -0.267,2.24 -0.399,4.524 -0.399,6.856 0,1.623 0.034,3.149 0.101,4.58 0.065,1.427 0.241,2.75 0.527,3.956 0.287,1.208 0.707,2.318 1.257,3.329 0.551,1.01 1.316,1.931 2.283,2.77 0.971,0.831 2.041,1.469 3.211,1.91 1.167,0.438 2.347,0.759 3.54,0.954 1.191,0.198 2.336,0.318 3.44,0.364 1.102,0.043 2.072,0.067 2.911,0.067 2.072,0 4.11,-0.123 6.121,-0.361 C 1.313,13.559 3.132,12.933 4.764,11.926 5.779,11.271 6.604,10.524 7.244,9.69 7.885,8.856 8.393,7.947 8.766,6.962 9.139,5.976 9.393,4.948 9.527,3.871 9.658,2.798 9.726,1.714 9.726,0.62 9.726,-0.256 9.636,-1.168 9.461,-2.105 9.285,-3.05 8.821,-3.896 8.073,-4.641 7.542,-5.168 6.957,-5.516 6.32,-5.688 5.679,-5.869 5.004,-5.953 4.3,-5.953 l -20.379,0 c 0,-0.754 0.043,-1.61 0.133,-2.581 0.088,-0.971 0.198,-1.722 0.33,-2.249 0.263,-0.929 0.639,-1.667 1.127,-2.218 0.482,-0.553 1.054,-0.971 1.721,-1.257 0.66,-0.288 1.353,-0.474 2.081,-0.565 0.727,-0.086 1.446,-0.131 2.151,-0.131 l 17.137,0 0,-5.951 -19.453,0 z"
             style="fill:#5f523c;fill-opacity:1;fill-rule:nonzero;stroke:none"
             id="path170663"
             inkscape:connector-curvature="0" /></g><g
           id="g170665"
           transform="translate(416.3398,199.5176)"><path
             d="m 0,0 c 0,1.939 0.23,3.803 0.694,5.591 0.462,1.786 1.445,3.318 2.943,4.597 0.795,0.707 1.667,1.269 2.614,1.688 0.949,0.419 1.897,0.728 2.844,0.927 0.949,0.197 1.863,0.317 2.75,0.363 0.882,0.043 1.649,0.067 2.315,0.067 l 5.227,0 0,-5.956 -3.244,0 C 15.132,7.277 14.001,7.145 12.768,6.88 11.535,6.615 10.454,5.933 9.527,4.829 8.775,3.945 8.291,2.908 8.07,1.717 7.85,0.527 7.741,-0.729 7.741,-2.054 l 0,-19.78 -7.741,0 L 0,0 Z"
             style="fill:#5f523c;fill-opacity:1;fill-rule:nonzero;stroke:none"
             id="path170667"
             inkscape:connector-curvature="0" /></g><g
           id="g170669"
           transform="translate(447.5078,177.6836)"><path
             d="m 0,0 c -1.012,0 -1.962,0.052 -2.843,0.163 -0.886,0.11 -1.7,0.538 -2.454,1.291 -0.788,0.749 -1.277,1.621 -1.452,2.613 -0.177,0.992 -0.264,1.929 -0.264,2.814 l 0,32.817 c 0,0.925 0.146,1.817 0.43,2.679 0.286,0.861 0.672,1.579 1.159,2.152 0.747,0.836 1.641,1.344 2.68,1.52 1.033,0.179 1.993,0.266 2.877,0.266 l 28.108,0 0,-6.949 -23.41,0 c -0.397,0 -0.806,-0.03 -1.222,-0.097 C 3.187,39.201 2.802,39.015 2.449,38.708 2.095,38.353 1.887,37.979 1.818,37.579 1.754,37.183 1.722,36.81 1.722,36.456 l 0,-9.331 22.655,0 0,-6.947 -22.655,0 0,-10.849 c 0,-0.843 0.22,-1.437 0.661,-1.791 0.266,-0.261 0.651,-0.43 1.157,-0.493 0.507,-0.067 1.112,-0.1 1.818,-0.1 l 23.148,0 L 28.506,0 0,0 Z"
             style="fill:#5f523c;fill-opacity:1;fill-rule:nonzero;stroke:none"
             id="path170671"
             inkscape:connector-curvature="0" /></g><g
           id="g170673"
           transform="translate(481.4453,207.3896)"><path
             d="M 0,0 C 0,0.529 0.055,1.149 0.166,1.854 0.274,2.56 0.595,3.196 1.124,3.772 1.874,4.609 2.768,5.085 3.805,5.193 4.84,5.305 5.732,5.361 6.483,5.361 l 12.37,0 c 1.855,0 3.597,-0.155 5.232,-0.465 1.63,-0.308 3.153,-1.102 4.566,-2.38 0.926,-0.838 1.729,-1.963 2.416,-3.375 0.678,-1.413 1.025,-3.332 1.025,-5.756 l 0,-23.091 -7.745,0 0,20.772 c 0,1.147 -0.086,2.262 -0.262,3.345 -0.178,1.078 -0.575,2.037 -1.195,2.876 -0.572,0.75 -1.287,1.291 -2.148,1.62 -0.857,0.332 -1.992,0.498 -3.407,0.498 l -7.873,0 c -0.22,0 -0.443,-0.01 -0.663,-0.034 C 8.577,-0.651 8.358,-0.771 8.14,-0.992 7.915,-1.213 7.794,-1.457 7.774,-1.72 7.751,-1.986 7.742,-2.227 7.742,-2.448 l 0,-27.258 -7.742,0 L 0,0 Z"
             style="fill:#5f523c;fill-opacity:1;fill-rule:nonzero;stroke:none"
             id="path170675"
             inkscape:connector-curvature="0" /></g><g
           id="g170677"
           transform="translate(542.7871,198.5889)"><path
             d="M 0,0 C 0.751,0 1.225,0.219 1.422,0.652 1.621,1.087 1.723,1.541 1.723,2.021 1.723,3.104 1.486,4.038 1.024,4.82 0.561,5.602 0.043,6.209 -0.528,6.643 -1.501,7.379 -2.569,7.823 -3.737,7.979 -4.908,8.132 -6.043,8.206 -7.146,8.206 -7.676,8.206 -8.25,8.195 -8.867,8.172 -9.485,8.149 -10.125,8.075 -10.782,7.945 -11.449,7.815 -12.098,7.586 -12.735,7.261 -13.376,6.937 -13.96,6.491 -14.49,5.93 -15.284,5.059 -15.735,4.135 -15.852,3.157 -15.959,2.184 -16.038,1.131 -16.079,0 L 0,0 Z m -10.853,-20.905 c -0.877,0 -1.81,0.027 -2.776,0.095 -0.973,0.066 -1.922,0.254 -2.849,0.559 -0.923,0.31 -1.829,0.761 -2.708,1.351 -0.884,0.594 -1.68,1.398 -2.383,2.407 -1.15,1.67 -1.855,3.627 -2.118,5.869 -0.265,2.24 -0.398,4.524 -0.398,6.856 0,1.623 0.032,3.149 0.099,4.58 0.068,1.427 0.242,2.75 0.53,3.956 0.283,1.208 0.706,2.318 1.255,3.329 0.553,1.01 1.311,1.931 2.286,2.77 0.97,0.831 2.035,1.469 3.207,1.91 1.169,0.438 2.351,0.759 3.542,0.954 1.189,0.198 2.338,0.318 3.44,0.364 1.099,0.043 2.073,0.067 2.912,0.067 2.074,0 4.107,-0.123 6.119,-0.361 C 1.311,13.559 3.131,12.933 4.764,11.926 5.777,11.271 6.604,10.524 7.242,9.69 7.884,8.856 8.391,7.947 8.766,6.962 9.142,5.976 9.394,4.948 9.526,3.871 9.659,2.798 9.726,1.714 9.726,0.62 9.726,-0.256 9.641,-1.168 9.462,-2.105 9.283,-3.05 8.82,-3.896 8.07,-4.641 7.544,-5.168 6.956,-5.516 6.32,-5.688 5.677,-5.869 5.007,-5.953 4.304,-5.953 l -20.383,0 c 0,-0.754 0.041,-1.61 0.133,-2.581 0.087,-0.971 0.2,-1.722 0.331,-2.249 0.265,-0.929 0.639,-1.667 1.125,-2.218 0.485,-0.553 1.06,-0.971 1.721,-1.257 0.658,-0.288 1.355,-0.474 2.083,-0.565 0.729,-0.086 1.444,-0.131 2.152,-0.131 l 17.134,0 0,-5.951 -19.453,0 z"
             style="fill:#5f523c;fill-opacity:1;fill-rule:nonzero;stroke:none"
             id="path170679"
             inkscape:connector-curvature="0" /></g><g
           id="g170681"
           transform="translate(557.6797,199.5176)"><path
             d="m 0,0 c 0,1.939 0.232,3.803 0.695,5.591 0.461,1.786 1.443,3.318 2.943,4.597 0.797,0.707 1.662,1.269 2.616,1.688 0.946,0.419 1.893,0.728 2.845,0.927 0.949,0.197 1.862,0.317 2.748,0.363 0.876,0.043 1.65,0.067 2.313,0.067 l 5.228,0 0,-5.956 -3.242,0 C 15.13,7.277 14.006,7.145 12.77,6.88 11.535,6.615 10.457,5.933 9.527,4.829 8.78,3.945 8.291,2.908 8.072,1.717 7.852,0.527 7.739,-0.729 7.739,-2.054 l 0,-19.78 -7.739,0 L 0,0 Z"
             style="fill:#5f523c;fill-opacity:1;fill-rule:nonzero;stroke:none"
             id="path170683"
             inkscape:connector-curvature="0" /></g><g
           id="g170685"
           transform="translate(604.5928,204.0146)"><path
             d="M 0,0 C 0,0.485 -0.06,0.905 -0.163,1.259 -0.276,1.609 -0.552,1.943 -0.992,2.25 -1.344,2.47 -1.687,2.614 -2.021,2.681 -2.349,2.746 -2.692,2.78 -3.044,2.78 l -6.616,0 c -1.278,0 -2.448,-0.187 -3.51,-0.562 -1.058,-0.375 -1.893,-0.918 -2.514,-1.621 -0.527,-0.62 -0.935,-1.379 -1.223,-2.284 -0.286,-0.905 -0.494,-1.819 -0.627,-2.745 -0.136,-0.927 -0.211,-1.798 -0.233,-2.613 -0.023,-0.82 -0.033,-1.424 -0.033,-1.818 0,-1.587 0.066,-2.926 0.199,-4.005 0.131,-1.081 0.296,-1.986 0.497,-2.713 0.197,-0.731 0.407,-1.312 0.628,-1.754 0.221,-0.442 0.441,-0.773 0.663,-0.99 0.881,-1.018 1.916,-1.612 3.107,-1.79 1.189,-0.176 2.362,-0.265 3.51,-0.265 L 0,-20.38 0,0 Z m -12.506,-26.331 c -0.927,0 -1.864,0.041 -2.812,0.13 -0.95,0.087 -1.884,0.275 -2.811,0.563 -0.926,0.286 -1.823,0.728 -2.681,1.321 -0.862,0.594 -1.622,1.421 -2.281,2.483 -1.811,2.821 -2.715,7.345 -2.715,13.563 0,2.778 0.233,5.25 0.696,7.411 0.463,2.16 1.467,4.08 3.009,5.758 0.837,0.924 1.697,1.644 2.583,2.149 0.88,0.508 1.784,0.884 2.712,1.124 0.925,0.243 1.854,0.397 2.779,0.465 0.926,0.062 1.83,0.1 2.711,0.1 L 0,8.736 c 1.016,0 2.005,-0.067 2.979,-0.2 C 3.942,8.403 4.849,8.006 5.687,7.345 6.571,6.595 7.134,5.747 7.379,4.798 7.62,3.85 7.744,2.999 7.744,2.25 l 0,-24.613 c 0,-2.251 -0.191,-4.346 -0.565,-6.286 -0.377,-1.943 -1.135,-3.619 -2.283,-5.032 -0.797,-0.965 -1.745,-1.731 -2.845,-2.282 -1.103,-0.552 -2.209,-0.972 -3.308,-1.255 -1.104,-0.291 -2.153,-0.472 -3.142,-0.563 -0.997,-0.086 -1.797,-0.133 -2.418,-0.133 l -16.54,0 0,5.957 14.753,0 c 0.84,0 1.897,0.076 3.176,0.228 1.282,0.159 2.384,0.61 3.311,1.359 1.147,1.016 1.829,2.359 2.05,4.039 l -12.439,0 z"
             style="fill:#5f523c;fill-opacity:1;fill-rule:nonzero;stroke:none"
             id="path170687"
             inkscape:connector-curvature="0" /></g><path
           d="m 619.227,212.751 7.742,0 0,-35.067 -7.742,0 0,35.067 z m 0,11.248 7.742,0 0,-6.153 -7.742,0 0,6.153 z"
           style="fill:#5f523c;fill-opacity:1;fill-rule:nonzero;stroke:none"
           id="path170689"
           inkscape:connector-curvature="0" /><g
           id="g170691"
           transform="translate(638.1504,213.1182)"><path
             d="m 0,0 0,6.92 c 0,0.133 0.011,0.27 0.032,0.413 0.023,0.144 0.09,0.271 0.197,0.381 0.112,0.11 0.257,0.193 0.434,0.249 0.177,0.055 0.431,0.082 0.76,0.082 l 3.279,0 C 4.99,8.045 5.266,8.033 5.529,8.014 5.795,7.991 6.036,7.891 6.258,7.714 6.588,7.471 6.799,7.123 6.888,6.67 6.976,6.22 7.019,5.815 7.019,5.464 7.019,4.888 6.958,4.441 6.838,4.121 6.716,3.803 6.562,3.565 6.375,3.41 6.187,3.256 5.993,3.157 5.795,3.112 5.594,3.067 5.419,3.046 5.266,3.046 l -0.828,0 L 7.45,0 5.661,0 2.98,2.715 C 2.868,2.825 2.774,2.93 2.7,3.029 2.62,3.128 2.582,3.299 2.582,3.54 c 0,0.312 0.084,0.487 0.249,0.532 0.166,0.045 0.315,0.066 0.448,0.066 l 1.159,0 c 0.066,0 0.221,0.011 0.463,0.032 0.243,0.021 0.396,0.057 0.463,0.101 0.178,0.132 0.267,0.308 0.267,0.53 l 0,1.158 c 0,0.221 -0.067,0.42 -0.2,0.597 C 5.321,6.71 5.177,6.805 5.002,6.837 4.822,6.87 4.678,6.885 4.569,6.885 l -2.682,0 C 1.822,6.885 1.738,6.881 1.641,6.87 1.541,6.859 1.469,6.842 1.423,6.82 1.38,6.775 1.352,6.687 1.343,6.556 1.331,6.424 1.324,6.335 1.324,6.29 L 1.324,0 0,0 Z m 4.156,-2.087 c 0.388,0.022 0.788,0.066 1.208,0.134 0.42,0.064 0.823,0.164 1.208,0.297 0.386,0.133 0.724,0.309 1.01,0.529 0.353,0.286 0.64,0.635 0.862,1.043 0.218,0.408 0.391,0.833 0.512,1.274 0.123,0.443 0.199,0.895 0.233,1.36 0.033,0.464 0.048,0.883 0.048,1.257 0,0.31 -0.009,0.657 -0.034,1.043 C 9.184,5.237 9.139,5.629 9.075,6.026 9.007,6.424 8.907,6.815 8.774,7.202 8.645,7.586 8.467,7.935 8.244,8.244 7.935,8.642 7.605,8.949 7.253,9.171 6.899,9.392 6.522,9.558 6.126,9.667 5.729,9.778 5.326,9.844 4.92,9.867 4.51,9.889 4.107,9.9 3.709,9.9 3.399,9.9 3.051,9.894 2.666,9.883 2.281,9.871 1.883,9.827 1.473,9.75 1.064,9.673 0.663,9.552 0.265,9.387 -0.132,9.221 -0.496,8.984 -0.827,8.673 -1.159,8.345 -1.417,7.979 -1.605,7.582 -1.792,7.185 -1.933,6.782 -2.019,6.374 -2.108,5.965 -2.164,5.558 -2.186,5.149 -2.207,4.739 -2.219,4.37 -2.219,4.039 c 0,-0.685 0.033,-1.396 0.099,-2.138 0.069,-0.736 0.289,-1.406 0.663,-2.001 0.288,-0.462 0.612,-0.828 0.978,-1.092 0.362,-0.266 0.75,-0.464 1.157,-0.597 0.41,-0.132 0.821,-0.22 1.243,-0.265 0.419,-0.045 0.829,-0.066 1.225,-0.066 0.285,0 0.623,0.011 1.01,0.033 m -2.35,-1.109 c -0.475,0.033 -0.945,0.114 -1.408,0.25 -0.462,0.132 -0.912,0.323 -1.341,0.579 -0.431,0.252 -0.832,0.599 -1.208,1.042 -0.332,0.397 -0.593,0.822 -0.78,1.274 -0.187,0.453 -0.326,0.911 -0.412,1.375 -0.09,0.463 -0.146,0.921 -0.167,1.374 -0.02,0.451 -0.033,0.877 -0.033,1.275 0,0.375 0.013,0.795 0.033,1.258 0.021,0.464 0.085,0.937 0.183,1.424 0.1,0.485 0.253,0.964 0.464,1.442 0.208,0.472 0.512,0.909 0.91,1.306 0.396,0.398 0.821,0.705 1.274,0.927 0.453,0.22 0.915,0.38 1.392,0.481 0.474,0.098 0.955,0.159 1.441,0.182 0.484,0.021 0.96,0.032 1.422,0.032 0.397,0 0.813,-0.004 1.242,-0.015 0.429,-0.011 0.86,-0.055 1.291,-0.133 C 6.541,10.799 6.964,10.68 7.382,10.512 7.803,10.348 8.198,10.098 8.575,9.768 9.017,9.392 9.372,8.978 9.637,8.524 9.901,8.072 10.098,7.594 10.23,7.084 10.365,6.577 10.452,6.059 10.496,5.527 10.541,5 10.563,4.48 10.563,3.973 10.563,3.486 10.541,2.985 10.496,2.467 10.452,1.946 10.368,1.43 10.247,0.91 10.126,0.392 9.945,-0.1 9.702,-0.562 9.458,-1.027 9.139,-1.436 8.741,-1.789 8.345,-2.143 7.892,-2.418 7.382,-2.616 6.875,-2.814 6.363,-2.958 5.844,-3.047 5.326,-3.135 4.83,-3.189 4.355,-3.213 3.879,-3.235 3.486,-3.246 3.179,-3.246 c -0.441,0 -0.898,0.017 -1.373,0.05"
             style="fill:#5f523c;fill-opacity:1;fill-rule:nonzero;stroke:none"
             id="path170693"
             inkscape:connector-curvature="0" /></g><g
           id="g170695"
           transform="translate(629.5371,340.3027)"><path
             d="m 0,0 c -15.851,-51.719 -83.511,-58.829 -128.305,-15.555 -0.391,0.332 -0.709,0.613 -0.974,0.807 l -36.161,33.281 c -6.629,5.637 -74.722,70.276 -89.036,82.169 -12.69,10.563 -70.657,53.39 -131.225,7.329 -25.061,-19.016 -42.028,-47.453 -43.368,-88.046 0,0.12 0.043,0.241 0.081,0.357 4.096,52.627 46.488,65.159 65.375,65.159 33.945,0 65.297,-27.407 65.297,-27.386 2.283,-1.853 4.18,-3.489 5.509,-4.788 l 32.143,-29.493 c 6.619,-5.641 74.64,-70.383 89.068,-82.154 11.906,-9.795 69.987,-52.577 131.222,-7.365 C -21.53,-51.779 -4.499,-24.959 0.163,0.508 0.075,0.328 0.075,0.158 0,0"
             style="fill:#a9bc0d;fill-opacity:1;fill-rule:nonzero;stroke:none"
             id="path170697"
             inkscape:connector-curvature="0" /></g><g
           id="g170699"
           transform="translate(408.4912,312.4287)"><path
             d="m 0,0 -41.866,40.07 c -1.141,1.17 -1.735,0.933 -2.915,-0.118 -11.907,-11.036 -19.721,-18.207 -33.206,-29.113 -30.279,-24.382 -92.5,-44.025 -112.478,1.241 11.825,-31.758 41.271,-67.441 90.17,-70.298 0.392,0 0.776,-0.02 1.103,-0.02 17.264,0.173 35.482,5.339 53.542,16.853 15.733,9.994 24.45,18.611 45.65,39.034 0.803,0.772 1.032,1.362 0,2.351"
             style="fill:#5f523c;fill-opacity:1;fill-rule:nonzero;stroke:none"
             id="path170701"
             inkscape:connector-curvature="0" /></g><g
           id="g170703"
           transform="translate(501.0781,324.8652)"><path
             d="m 0,0 c 44.796,-43.745 112.608,-36.316 128.459,15.438 2.016,6.498 -7.569,11.613 -11.987,1.438 C 106.692,-8.5 61.158,-48.16 0,0"
             style="fill:#97a50a;fill-opacity:1;fill-rule:nonzero;stroke:none"
             id="path170705"
             inkscape:connector-curvature="0" /></g><g
           id="g170707"
           transform="translate(617.5498,380.2031)"><path
             d="m 0,0 c -5.751,59.657 -50.693,86.509 -83.351,88.636 1.702,-0.042 3.384,-0.116 5.127,-0.268 -20.227,1.887 -42.816,-3.514 -66.005,-18.813 -14.666,-9.676 -25.35,-18.929 -46.527,-38.699 -0.94,-0.873 -1.738,-1.523 -0.47,-2.763 l 42.188,-39.611 c 1.106,-1.085 1.615,-0.919 2.675,-0.031 11.949,11.058 19.801,18.274 33.363,29.173 C -80.204,44.081 -14.938,65.608 0.085,-0.887 0.042,-0.611 0,-0.314 0,0"
             style="fill:#5f523c;fill-opacity:1;fill-rule:nonzero;stroke:none"
             id="path170709"
             inkscape:connector-curvature="0" /></g><g
           id="g170711"
           transform="translate(629.8447,380.3369)"><path
             d="M 0,0 C 0.559,-8.514 -11.432,-9.874 -12.295,-0.134 -18.046,59.523 -62.988,86.375 -95.646,88.502 -57.712,87.735 -6.767,60.508 0,0"
             style="fill:#9f9280;fill-opacity:1;fill-rule:nonzero;stroke:none"
             id="path170713"
             inkscape:connector-curvature="0" /></g><g
           id="g170715"
           transform="translate(212.3042,360.2422)"><path
             d="M 0,0 0,0 C 0.947,10.221 4.17,20.077 9.772,28.694 39.66,74.313 95.376,55.719 112.406,43.247 98.016,53.535 76.409,65.562 53.62,65.562 34.694,65.562 -7.828,53.008 -11.828,0.187 l -0.008,0 c -0.435,-8.577 0.555,-17.9 3.238,-27.322 C 7.726,-83.494 59.027,-107.554 96.517,-106.096 26.245,-102.395 -3.842,-31.062 0,0"
             style="fill:#97a50a;fill-opacity:1;fill-rule:nonzero;stroke:none"
             id="path170717"
             inkscape:connector-curvature="0" /></g></g></g></g></svg>